<svg xmlns="http://www.w3.org/2000/svg" version="1.2" x="0px" y="0px" width="1000" height="1000" viewBox="0 0 1000 1000">
  <path fill="#ECECEC" d="M0 0h1000v1000H0z"/>
  <path d="M690.48 349.57c-6.535-6.534-14.39-9.802-23.574-9.802H333.088c-9.18 0-17.035 3.268-23.576 9.803-6.537 6.54-9.804 14.395-9.804 23.575V626.85c0 9.183 3.265 17.038 9.804 23.577 6.541 6.536 14.396 9.806 23.578 9.806h333.82c9.178 0 17.037-3.268 23.573-9.806 6.537-6.536 9.81-14.393 9.81-23.579V373.15c0-9.18-3.271-17.038-9.813-23.575zm-16.898 277.277c0 1.81-.657 3.37-1.978 4.695-1.321 1.316-2.888 1.975-4.697 1.975H333.09c-1.808 0-3.373-.659-4.694-1.975-1.319-1.324-1.981-2.884-1.981-4.696v-253.7c0-1.807.659-3.369 1.981-4.693 1.321-1.318 2.888-1.978 4.695-1.978h333.82c1.805 0 3.372.662 4.691 1.978 1.316 1.324 1.977 2.886 1.977 4.693V626.85z" fill="#ccc"/>
  <path d="M393.178 473.291c11.13 0 20.587-3.892 28.377-11.682 7.79-7.79 11.683-17.248 11.683-28.373 0-11.13-3.897-20.586-11.683-28.375-7.79-7.787-17.248-11.683-28.375-11.683-11.127 0-20.585 3.892-28.375 11.683-7.788 7.79-11.682 17.248-11.682 28.375 0 11.128 3.893 20.585 11.683 28.376 7.788 7.786 17.247 11.68 28.372 11.68zM419.882 500l-66.762 66.76v40.062h293.76v-93.47l-86.791-86.793-106.823 106.82z" fill="#ccc"/>
</svg>